<svg height="974" width="720" xmlns="http://www.w3.org/2000/svg">
<rect height="974" fill="#555" width="720"></rect>
<text fill="#7f7" font-family="Courier New" font-size="12" xml:space="preserve">
<tspan x="10" y="26">└─┬ gulp-add-src@0.2.0 </tspan>
<tspan x="10" y="42">  ├─┬ event-stream@3.1.7 </tspan>
<tspan x="10" y="58">  │ ├── duplexer@0.1.1 </tspan>
<tspan x="10" y="74">  │ ├── from@0.1.7 </tspan>
<tspan x="10" y="90">  │ ├── map-stream@0.1.0 </tspan>
<tspan x="10" y="106">  │ ├── pause-stream@0.0.11 </tspan>
<tspan x="10" y="122">  │ ├── split@0.2.10 </tspan>
<tspan x="10" y="138">  │ ├── stream-combiner@0.0.4 </tspan>
<tspan x="10" y="154">  │ └── through@2.3.8 </tspan>
<tspan x="10" y="170">  ├─┬ streamqueue@0.1.3 </tspan>
<tspan x="10" y="186">  │ ├── isstream@0.1.2 </tspan>
<tspan x="10" y="202">  │ └─┬ readable-stream@1.0.34 </tspan>
<tspan x="10" y="218">  │   ├── core-util-is@1.0.2 </tspan>
<tspan x="10" y="234">  │   ├── inherits@2.0.3 </tspan>
<tspan x="10" y="250">  │   ├── isarray@0.0.1 </tspan>
<tspan x="10" y="266">  │   └── string_decoder@0.10.31 </tspan>
<tspan x="10" y="282">  ├─┬ through2@0.4.2 </tspan>
<tspan x="10" y="298">  │ └─┬ xtend@2.1.2 </tspan>
<tspan x="10" y="314">  │   └── object-keys@0.4.0 </tspan>
<tspan x="10" y="330">  └─┬ vinyl-fs@0.3.14 </tspan>
<tspan x="10" y="346">    ├─┬ defaults@1.0.3 </tspan>
<tspan x="10" y="362">    │ └── clone@1.0.2 </tspan>
<tspan x="10" y="378">    ├─┬ glob-stream@3.1.18 </tspan>
<tspan x="10" y="394">    │ ├─┬ glob@4.5.3 </tspan>
<tspan x="10" y="410">    │ │ ├─┬ inflight@1.0.6 </tspan>
<tspan x="10" y="426">    │ │ │ └── wrappy@1.0.2 </tspan>
<tspan x="10" y="442">    │ │ └── once@1.4.0 </tspan>
<tspan x="10" y="458">    │ ├─┬ glob2base@0.0.12 </tspan>
<tspan x="10" y="474">    │ │ └── find-index@0.1.1 </tspan>
<tspan x="10" y="490">    │ ├─┬ minimatch@2.0.10 </tspan>
<tspan x="10" y="506">    │ │ └─┬ brace-expansion@1.1.6 </tspan>
<tspan x="10" y="522">    │ │   ├── balanced-match@0.4.2 </tspan>
<tspan x="10" y="538">    │ │   └── concat-map@0.0.1 </tspan>
<tspan x="10" y="554">    │ ├── ordered-read-streams@0.1.0 </tspan>
<tspan x="10" y="570">    │ ├─┬ through2@0.6.5 </tspan>
<tspan x="10" y="586">    │ │ └── xtend@4.0.1 </tspan>
<tspan x="10" y="602">    │ └── unique-stream@1.0.0 </tspan>
<tspan x="10" y="618">    ├─┬ glob-watcher@0.0.6 </tspan>
<tspan x="10" y="634">    │ └─┬ gaze@0.5.2 </tspan>
<tspan x="10" y="650">    │   └─┬ globule@0.1.0 </tspan>
<tspan x="10" y="666">    │     ├─┬ glob@3.1.21 </tspan>
<tspan x="10" y="682">    │     │ ├── graceful-fs@1.2.3 </tspan>
<tspan x="10" y="698">    │     │ └── inherits@1.0.2 </tspan>
<tspan x="10" y="714">    │     ├── lodash@1.0.2 </tspan>
<tspan x="10" y="730">    │     └─┬ minimatch@0.2.14 </tspan>
<tspan x="10" y="746">    │       ├── lru-cache@2.7.3 </tspan>
<tspan x="10" y="762">    │       └── sigmund@1.0.1 </tspan>
<tspan x="10" y="778">    ├─┬ graceful-fs@3.0.11 </tspan>
<tspan x="10" y="794">    │ └── natives@1.1.0 </tspan>
<tspan x="10" y="810">    ├─┬ mkdirp@0.5.1 </tspan>
<tspan x="10" y="826">    │ └── minimist@0.0.8 </tspan>
<tspan x="10" y="842">    ├─┬ strip-bom@1.0.0 </tspan>
<tspan x="10" y="858">    │ ├── first-chunk-stream@1.0.0 </tspan>
<tspan x="10" y="874">    │ └── is-utf8@0.2.1 </tspan>
<tspan x="10" y="890">    ├─┬ through2@0.6.5 </tspan>
<tspan x="10" y="906">    │ └── xtend@4.0.1 </tspan>
<tspan x="10" y="922">    └─┬ vinyl@0.4.6 </tspan>
<tspan x="10" y="938">      ├── clone@0.2.0 </tspan>
<tspan x="10" y="954">      └── clone-stats@0.0.1</tspan>
</text>
</svg>
